<svg width="346" height="60" viewBox="0 0 346 60" fill="none" xmlns="http://www.w3.org/2000/svg">
<path d="M29.3249 49.368C29.3249 48.2587 29.5649 47.272 30.0449 46.408C30.5249 45.5333 31.1915 44.856 32.0449 44.376C32.9089 43.8853 33.8849 43.64 34.9729 43.64C36.3062 43.64 37.4475 43.992 38.3969 44.696C39.3462 45.4 39.9809 46.36 40.3009 47.576H37.2929C37.0689 47.1067 36.7489 46.7493 36.3329 46.504C35.9275 46.2587 35.4635 46.136 34.9409 46.136C34.0982 46.136 33.4155 46.4293 32.8929 47.016C32.3702 47.6027 32.1089 48.3867 32.1089 49.368C32.1089 50.3493 32.3702 51.1333 32.8929 51.72C33.4155 52.3067 34.0982 52.6 34.9409 52.6C35.4635 52.6 35.9275 52.4773 36.3329 52.232C36.7489 51.9867 37.0689 51.6293 37.2929 51.16H40.3009C39.9809 52.376 39.3462 53.336 38.3969 54.04C37.4475 54.7333 36.3062 55.08 34.9729 55.08C33.8849 55.08 32.9089 54.84 32.0449 54.36C31.1915 53.8693 30.5249 53.192 30.0449 52.328C29.5649 51.464 29.3249 50.4773 29.3249 49.368ZM46.0404 55.128C45.1657 55.128 44.3764 54.9413 43.6724 54.568C42.979 54.1947 42.4297 53.6613 42.0244 52.968C41.6297 52.2747 41.4324 51.464 41.4324 50.536C41.4324 49.6187 41.635 48.8133 42.0404 48.12C42.4457 47.416 43.0004 46.8773 43.7044 46.504C44.4084 46.1307 45.1977 45.944 46.0724 45.944C46.947 45.944 47.7364 46.1307 48.4404 46.504C49.1444 46.8773 49.699 47.416 50.1044 48.12C50.5097 48.8133 50.7124 49.6187 50.7124 50.536C50.7124 51.4533 50.5044 52.264 50.0884 52.968C49.683 53.6613 49.123 54.1947 48.4084 54.568C47.7044 54.9413 46.915 55.128 46.0404 55.128ZM46.0404 52.76C46.563 52.76 47.0057 52.568 47.3684 52.184C47.7417 51.8 47.9284 51.2507 47.9284 50.536C47.9284 49.8213 47.747 49.272 47.3844 48.888C47.0324 48.504 46.595 48.312 46.0724 48.312C45.539 48.312 45.0964 48.504 44.7444 48.888C44.3924 49.2613 44.2164 49.8107 44.2164 50.536C44.2164 51.2507 44.387 51.8 44.7284 52.184C45.0804 52.568 45.5177 52.76 46.0404 52.76ZM60.9799 46.072V55H58.2439V53.784C57.9665 54.1787 57.5879 54.4987 57.1079 54.744C56.6385 54.9787 56.1159 55.096 55.5399 55.096C54.8572 55.096 54.2545 54.9467 53.7319 54.648C53.2092 54.3387 52.8039 53.896 52.5159 53.32C52.2279 52.744 52.0839 52.0667 52.0839 51.288V46.072H54.8039V50.92C54.8039 51.5173 54.9585 51.9813 55.2679 52.312C55.5772 52.6427 55.9932 52.808 56.5159 52.808C57.0492 52.808 57.4705 52.6427 57.7799 52.312C58.0892 51.9813 58.2439 51.5173 58.2439 50.92V46.072H60.9799ZM74.3371 45.976C75.4465 45.976 76.3265 46.312 76.9771 46.984C77.6385 47.656 77.9691 48.5893 77.9691 49.784V55H75.2491V50.152C75.2491 49.576 75.0945 49.1333 74.7851 48.824C74.4865 48.504 74.0705 48.344 73.5371 48.344C73.0038 48.344 72.5825 48.504 72.2731 48.824C71.9745 49.1333 71.8251 49.576 71.8251 50.152V55H69.1051V50.152C69.1051 49.576 68.9505 49.1333 68.6411 48.824C68.3425 48.504 67.9265 48.344 67.3931 48.344C66.8598 48.344 66.4385 48.504 66.1291 48.824C65.8305 49.1333 65.6811 49.576 65.6811 50.152V55H62.9451V46.072H65.6811V47.192C65.9585 46.8187 66.3211 46.5253 66.7691 46.312C67.2171 46.088 67.7238 45.976 68.2891 45.976C68.9611 45.976 69.5585 46.12 70.0811 46.408C70.6145 46.696 71.0305 47.1067 71.3291 47.64C71.6385 47.1493 72.0598 46.7493 72.5931 46.44C73.1265 46.1307 73.7078 45.976 74.3371 45.976ZM91.2746 45.976C92.384 45.976 93.264 46.312 93.9146 46.984C94.576 47.656 94.9066 48.5893 94.9066 49.784V55H92.1866V50.152C92.1866 49.576 92.032 49.1333 91.7226 48.824C91.424 48.504 91.008 48.344 90.4746 48.344C89.9413 48.344 89.52 48.504 89.2106 48.824C88.912 49.1333 88.7626 49.576 88.7626 50.152V55H86.0426V50.152C86.0426 49.576 85.888 49.1333 85.5786 48.824C85.28 48.504 84.864 48.344 84.3306 48.344C83.7973 48.344 83.376 48.504 83.0666 48.824C82.768 49.1333 82.6186 49.576 82.6186 50.152V55H79.8826V46.072H82.6186V47.192C82.896 46.8187 83.2586 46.5253 83.7066 46.312C84.1546 46.088 84.6613 45.976 85.2266 45.976C85.8986 45.976 86.496 46.12 87.0186 46.408C87.552 46.696 87.968 47.1067 88.2666 47.64C88.576 47.1493 88.9973 46.7493 89.5306 46.44C90.064 46.1307 90.6453 45.976 91.2746 45.976ZM105.636 46.072V55H102.9V53.784C102.623 54.1787 102.244 54.4987 101.764 54.744C101.295 54.9787 100.772 55.096 100.196 55.096C99.5135 55.096 98.9108 54.9467 98.3881 54.648C97.8655 54.3387 97.4601 53.896 97.1721 53.32C96.8841 52.744 96.7401 52.0667 96.7401 51.288V46.072H99.4601V50.92C99.4601 51.5173 99.6148 51.9813 99.9241 52.312C100.233 52.6427 100.649 52.808 101.172 52.808C101.705 52.808 102.127 52.6427 102.436 52.312C102.745 51.9813 102.9 51.5173 102.9 50.92V46.072H105.636ZM113.041 45.976C114.087 45.976 114.919 46.3173 115.537 47C116.167 47.672 116.481 48.6 116.481 49.784V55H113.761V50.152C113.761 49.5547 113.607 49.0907 113.297 48.76C112.988 48.4293 112.572 48.264 112.049 48.264C111.527 48.264 111.111 48.4293 110.801 48.76C110.492 49.0907 110.337 49.5547 110.337 50.152V55H107.601V46.072H110.337V47.256C110.615 46.8613 110.988 46.552 111.457 46.328C111.927 46.0933 112.455 45.976 113.041 45.976ZM119.759 45.144C119.279 45.144 118.884 45.0053 118.575 44.728C118.276 44.44 118.127 44.088 118.127 43.672C118.127 43.2453 118.276 42.8933 118.575 42.616C118.884 42.328 119.279 42.184 119.759 42.184C120.228 42.184 120.612 42.328 120.911 42.616C121.22 42.8933 121.375 43.2453 121.375 43.672C121.375 44.088 121.22 44.44 120.911 44.728C120.612 45.0053 120.228 45.144 119.759 45.144ZM121.119 46.072V55H118.383V46.072H121.119ZM128.077 52.68V55H126.685C125.693 55 124.92 54.76 124.365 54.28C123.811 53.7893 123.533 52.9947 123.533 51.896V48.344H122.445V46.072H123.533V43.896H126.269V46.072H128.061V48.344H126.269V51.928C126.269 52.1947 126.333 52.3867 126.461 52.504C126.589 52.6213 126.803 52.68 127.101 52.68H128.077ZM138.721 46.072L133.121 59.24H130.177L132.225 54.696L128.593 46.072H131.649L133.713 51.656L135.761 46.072H138.721ZM147.581 48.344H146.109V55H143.373V48.344H142.381V46.072H143.373V45.816C143.373 44.7173 143.688 43.8853 144.317 43.32C144.947 42.744 145.869 42.456 147.085 42.456C147.288 42.456 147.437 42.4613 147.533 42.472V44.792C147.011 44.76 146.643 44.8347 146.429 45.016C146.216 45.1973 146.109 45.5227 146.109 45.992V46.072H147.581V48.344ZM152.931 55.128C152.056 55.128 151.267 54.9413 150.563 54.568C149.87 54.1947 149.32 53.6613 148.915 52.968C148.52 52.2747 148.323 51.464 148.323 50.536C148.323 49.6187 148.526 48.8133 148.931 48.12C149.336 47.416 149.891 46.8773 150.595 46.504C151.299 46.1307 152.088 45.944 152.963 45.944C153.838 45.944 154.627 46.1307 155.331 46.504C156.035 46.8773 156.59 47.416 156.995 48.12C157.4 48.8133 157.603 49.6187 157.603 50.536C157.603 51.4533 157.395 52.264 156.979 52.968C156.574 53.6613 156.014 54.1947 155.299 54.568C154.595 54.9413 153.806 55.128 152.931 55.128ZM152.931 52.76C153.454 52.76 153.896 52.568 154.259 52.184C154.632 51.8 154.819 51.2507 154.819 50.536C154.819 49.8213 154.638 49.272 154.275 48.888C153.923 48.504 153.486 48.312 152.963 48.312C152.43 48.312 151.987 48.504 151.635 48.888C151.283 49.2613 151.107 49.8107 151.107 50.536C151.107 51.2507 151.278 51.8 151.619 52.184C151.971 52.568 152.408 52.76 152.931 52.76ZM161.791 47.56C162.111 47.0693 162.511 46.6853 162.991 46.408C163.471 46.12 164.004 45.976 164.591 45.976V48.872H163.839C163.156 48.872 162.644 49.0213 162.303 49.32C161.961 49.608 161.791 50.12 161.791 50.856V55H159.055V46.072H161.791V47.56ZM177.849 47.384C177.849 48.0347 177.7 48.632 177.401 49.176C177.102 49.7093 176.644 50.1413 176.025 50.472C175.406 50.8027 174.638 50.968 173.721 50.968H172.025V55H169.289V43.768H173.721C174.617 43.768 175.374 43.9227 175.993 44.232C176.612 44.5413 177.076 44.968 177.385 45.512C177.694 46.056 177.849 46.68 177.849 47.384ZM173.513 48.792C174.036 48.792 174.425 48.6693 174.681 48.424C174.937 48.1787 175.065 47.832 175.065 47.384C175.065 46.936 174.937 46.5893 174.681 46.344C174.425 46.0987 174.036 45.976 173.513 45.976H172.025V48.792H173.513ZM182.009 47.56C182.329 47.0693 182.729 46.6853 183.209 46.408C183.689 46.12 184.223 45.976 184.809 45.976V48.872H184.057C183.375 48.872 182.863 49.0213 182.521 49.32C182.18 49.608 182.009 50.12 182.009 50.856V55H179.273V46.072H182.009V47.56ZM190.181 55.128C189.306 55.128 188.517 54.9413 187.813 54.568C187.12 54.1947 186.57 53.6613 186.165 52.968C185.77 52.2747 185.573 51.464 185.573 50.536C185.573 49.6187 185.776 48.8133 186.181 48.12C186.586 47.416 187.141 46.8773 187.845 46.504C188.549 46.1307 189.338 45.944 190.213 45.944C191.088 45.944 191.877 46.1307 192.581 46.504C193.285 46.8773 193.84 47.416 194.245 48.12C194.65 48.8133 194.853 49.6187 194.853 50.536C194.853 51.4533 194.645 52.264 194.229 52.968C193.824 53.6613 193.264 54.1947 192.549 54.568C191.845 54.9413 191.056 55.128 190.181 55.128ZM190.181 52.76C190.704 52.76 191.146 52.568 191.509 52.184C191.882 51.8 192.069 51.2507 192.069 50.536C192.069 49.8213 191.888 49.272 191.525 48.888C191.173 48.504 190.736 48.312 190.213 48.312C189.68 48.312 189.237 48.504 188.885 48.888C188.533 49.2613 188.357 49.8107 188.357 50.536C188.357 51.2507 188.528 51.8 188.869 52.184C189.221 52.568 189.658 52.76 190.181 52.76ZM195.761 50.52C195.761 49.6027 195.931 48.7973 196.273 48.104C196.625 47.4107 197.099 46.8773 197.697 46.504C198.294 46.1307 198.961 45.944 199.697 45.944C200.283 45.944 200.817 46.0667 201.297 46.312C201.787 46.5573 202.171 46.888 202.449 47.304V43.16H205.185V55H202.449V53.72C202.193 54.1467 201.825 54.488 201.345 54.744C200.875 55 200.326 55.128 199.697 55.128C198.961 55.128 198.294 54.9413 197.697 54.568C197.099 54.184 196.625 53.6453 196.273 52.952C195.931 52.248 195.761 51.4373 195.761 50.52ZM202.449 50.536C202.449 49.8533 202.257 49.3147 201.873 48.92C201.499 48.5253 201.041 48.328 200.497 48.328C199.953 48.328 199.489 48.5253 199.105 48.92C198.731 49.304 198.545 49.8373 198.545 50.52C198.545 51.2027 198.731 51.7467 199.105 52.152C199.489 52.5467 199.953 52.744 200.497 52.744C201.041 52.744 201.499 52.5467 201.873 52.152C202.257 51.7573 202.449 51.2187 202.449 50.536ZM215.98 46.072V55H213.244V53.784C212.967 54.1787 212.588 54.4987 212.108 54.744C211.639 54.9787 211.116 55.096 210.54 55.096C209.857 55.096 209.255 54.9467 208.732 54.648C208.209 54.3387 207.804 53.896 207.516 53.32C207.228 52.744 207.084 52.0667 207.084 51.288V46.072H209.804V50.92C209.804 51.5173 209.959 51.9813 210.268 52.312C210.577 52.6427 210.993 52.808 211.516 52.808C212.049 52.808 212.471 52.6427 212.78 52.312C213.089 51.9813 213.244 51.5173 213.244 50.92V46.072H215.98ZM217.401 50.536C217.401 49.608 217.588 48.7973 217.961 48.104C218.345 47.4107 218.873 46.8773 219.545 46.504C220.228 46.1307 221.006 45.944 221.881 45.944C223.001 45.944 223.934 46.2373 224.681 46.824C225.438 47.4107 225.934 48.2373 226.169 49.304H223.257C223.012 48.6213 222.537 48.28 221.833 48.28C221.332 48.28 220.932 48.4773 220.633 48.872C220.334 49.256 220.185 49.8107 220.185 50.536C220.185 51.2613 220.334 51.8213 220.633 52.216C220.932 52.6 221.332 52.792 221.833 52.792C222.537 52.792 223.012 52.4507 223.257 51.768H226.169C225.934 52.8133 225.438 53.6347 224.681 54.232C223.924 54.8293 222.99 55.128 221.881 55.128C221.006 55.128 220.228 54.9413 219.545 54.568C218.873 54.1947 218.345 53.6613 217.961 52.968C217.588 52.2747 217.401 51.464 217.401 50.536ZM232.609 52.68V55H231.217C230.225 55 229.451 54.76 228.897 54.28C228.342 53.7893 228.065 52.9947 228.065 51.896V48.344H226.977V46.072H228.065V43.896H230.801V46.072H232.593V48.344H230.801V51.928C230.801 52.1947 230.865 52.3867 230.993 52.504C231.121 52.6213 231.334 52.68 231.633 52.68H232.609ZM250.243 43.768V55H247.507V48.264L244.995 55H242.787L240.259 48.248V55H237.523V43.768H240.755L243.907 51.544L247.027 43.768H250.243ZM251.667 50.52C251.667 49.6027 251.837 48.7973 252.179 48.104C252.531 47.4107 253.005 46.8773 253.603 46.504C254.2 46.1307 254.867 45.944 255.603 45.944C256.232 45.944 256.781 46.072 257.251 46.328C257.731 46.584 258.099 46.92 258.355 47.336V46.072H261.091V55H258.355V53.736C258.088 54.152 257.715 54.488 257.235 54.744C256.765 55 256.216 55.128 255.587 55.128C254.861 55.128 254.2 54.9413 253.603 54.568C253.005 54.184 252.531 53.6453 252.179 52.952C251.837 52.248 251.667 51.4373 251.667 50.52ZM258.355 50.536C258.355 49.8533 258.163 49.3147 257.779 48.92C257.405 48.5253 256.947 48.328 256.403 48.328C255.859 48.328 255.395 48.5253 255.011 48.92C254.637 49.304 254.451 49.8373 254.451 50.52C254.451 51.2027 254.637 51.7467 255.011 52.152C255.395 52.5467 255.859 52.744 256.403 52.744C256.947 52.744 257.405 52.5467 257.779 52.152C258.163 51.7573 258.355 51.2187 258.355 50.536ZM268.51 45.976C269.555 45.976 270.387 46.3173 271.006 47C271.635 47.672 271.95 48.6 271.95 49.784V55H269.23V50.152C269.23 49.5547 269.075 49.0907 268.766 48.76C268.457 48.4293 268.041 48.264 267.518 48.264C266.995 48.264 266.579 48.4293 266.27 48.76C265.961 49.0907 265.806 49.5547 265.806 50.152V55H263.07V46.072H265.806V47.256C266.083 46.8613 266.457 46.552 266.926 46.328C267.395 46.0933 267.923 45.976 268.51 45.976ZM273.307 50.52C273.307 49.6027 273.478 48.7973 273.819 48.104C274.171 47.4107 274.646 46.8773 275.243 46.504C275.841 46.1307 276.507 45.944 277.243 45.944C277.873 45.944 278.422 46.072 278.891 46.328C279.371 46.584 279.739 46.92 279.995 47.336V46.072H282.731V55H279.995V53.736C279.729 54.152 279.355 54.488 278.875 54.744C278.406 55 277.857 55.128 277.227 55.128C276.502 55.128 275.841 54.9413 275.243 54.568C274.646 54.184 274.171 53.6453 273.819 52.952C273.478 52.248 273.307 51.4373 273.307 50.52ZM279.995 50.536C279.995 49.8533 279.803 49.3147 279.419 48.92C279.046 48.5253 278.587 48.328 278.043 48.328C277.499 48.328 277.035 48.5253 276.651 48.92C276.278 49.304 276.091 49.8373 276.091 50.52C276.091 51.2027 276.278 51.7467 276.651 52.152C277.035 52.5467 277.499 52.744 278.043 52.744C278.587 52.744 279.046 52.5467 279.419 52.152C279.803 51.7573 279.995 51.2187 279.995 50.536ZM288.103 45.944C288.732 45.944 289.281 46.072 289.751 46.328C290.231 46.584 290.599 46.92 290.855 47.336V46.072H293.591V54.984C293.591 55.8053 293.425 56.5467 293.095 57.208C292.775 57.88 292.279 58.4133 291.607 58.808C290.945 59.2027 290.119 59.4 289.127 59.4C287.804 59.4 286.732 59.0853 285.911 58.456C285.089 57.8373 284.62 56.9947 284.503 55.928H287.207C287.292 56.2693 287.495 56.536 287.815 56.728C288.135 56.9307 288.529 57.032 288.999 57.032C289.564 57.032 290.012 56.8667 290.343 56.536C290.684 56.216 290.855 55.6987 290.855 54.984V53.72C290.588 54.136 290.22 54.4773 289.751 54.744C289.281 55 288.732 55.128 288.103 55.128C287.367 55.128 286.7 54.9413 286.103 54.568C285.505 54.184 285.031 53.6453 284.679 52.952C284.337 52.248 284.167 51.4373 284.167 50.52C284.167 49.6027 284.337 48.7973 284.679 48.104C285.031 47.4107 285.505 46.8773 286.103 46.504C286.7 46.1307 287.367 45.944 288.103 45.944ZM290.855 50.536C290.855 49.8533 290.663 49.3147 290.279 48.92C289.905 48.5253 289.447 48.328 288.903 48.328C288.359 48.328 287.895 48.5253 287.511 48.92C287.137 49.304 286.951 49.8373 286.951 50.52C286.951 51.2027 287.137 51.7467 287.511 52.152C287.895 52.5467 288.359 52.744 288.903 52.744C289.447 52.744 289.905 52.5467 290.279 52.152C290.663 51.7573 290.855 51.2187 290.855 50.536ZM303.986 50.392C303.986 50.648 303.97 50.9147 303.938 51.192H297.746C297.789 51.7467 297.965 52.1733 298.274 52.472C298.594 52.76 298.983 52.904 299.442 52.904C300.125 52.904 300.599 52.616 300.866 52.04H303.778C303.629 52.6267 303.357 53.1547 302.962 53.624C302.578 54.0933 302.093 54.4613 301.506 54.728C300.919 54.9947 300.263 55.128 299.538 55.128C298.663 55.128 297.885 54.9413 297.202 54.568C296.519 54.1947 295.986 53.6613 295.602 52.968C295.218 52.2747 295.026 51.464 295.026 50.536C295.026 49.608 295.213 48.7973 295.586 48.104C295.97 47.4107 296.503 46.8773 297.186 46.504C297.869 46.1307 298.653 45.944 299.538 45.944C300.402 45.944 301.17 46.1253 301.842 46.488C302.514 46.8507 303.037 47.368 303.41 48.04C303.794 48.712 303.986 49.496 303.986 50.392ZM301.186 49.672C301.186 49.2027 301.026 48.8293 300.706 48.552C300.386 48.2747 299.986 48.136 299.506 48.136C299.047 48.136 298.658 48.2693 298.338 48.536C298.029 48.8027 297.837 49.1813 297.762 49.672H301.186ZM308.166 47.56C308.486 47.0693 308.886 46.6853 309.366 46.408C309.846 46.12 310.379 45.976 310.966 45.976V48.872H310.214C309.531 48.872 309.019 49.0213 308.678 49.32C308.336 49.608 308.166 50.12 308.166 50.856V55H305.43V46.072H308.166V47.56ZM315.905 55.128C315.127 55.128 314.433 54.9947 313.825 54.728C313.217 54.4613 312.737 54.0987 312.385 53.64C312.033 53.1707 311.836 52.648 311.793 52.072H314.497C314.529 52.3813 314.673 52.632 314.929 52.824C315.185 53.016 315.5 53.112 315.873 53.112C316.215 53.112 316.476 53.048 316.657 52.92C316.849 52.7813 316.945 52.6053 316.945 52.392C316.945 52.136 316.812 51.9493 316.545 51.832C316.279 51.704 315.847 51.5653 315.249 51.416C314.609 51.2667 314.076 51.112 313.649 50.952C313.223 50.7813 312.855 50.52 312.545 50.168C312.236 49.8053 312.081 49.32 312.081 48.712C312.081 48.2 312.22 47.736 312.497 47.32C312.785 46.8933 313.201 46.5573 313.745 46.312C314.3 46.0667 314.956 45.944 315.713 45.944C316.833 45.944 317.713 46.2213 318.353 46.776C319.004 47.3307 319.377 48.0667 319.473 48.984H316.945C316.903 48.6747 316.764 48.4293 316.529 48.248C316.305 48.0667 316.007 47.976 315.633 47.976C315.313 47.976 315.068 48.04 314.897 48.168C314.727 48.2853 314.641 48.4507 314.641 48.664C314.641 48.92 314.775 49.112 315.041 49.24C315.319 49.368 315.745 49.496 316.321 49.624C316.983 49.7947 317.521 49.9653 317.937 50.136C318.353 50.296 318.716 50.5627 319.025 50.936C319.345 51.2987 319.511 51.7893 319.521 52.408C319.521 52.9307 319.372 53.4 319.073 53.816C318.785 54.2213 318.364 54.5413 317.809 54.776C317.265 55.0107 316.631 55.128 315.905 55.128Z" fill="#EC5F5F"/>
<path d="M66.5949 8.248L61.9149 25H57.9549L54.8109 13.072L51.5229 25L47.5869 25.024L43.0749 8.248H46.6749L49.6269 21.256L53.0349 8.248H56.7789L59.9949 21.184L62.9709 8.248H66.5949ZM81.1488 18.064C81.1488 18.544 81.1168 18.976 81.0528 19.36H71.3328C71.4128 20.32 71.7488 21.072 72.3408 21.616C72.9328 22.16 73.6608 22.432 74.5248 22.432C75.7728 22.432 76.6608 21.896 77.1888 20.824H80.8128C80.4288 22.104 79.6928 23.16 78.6048 23.992C77.5168 24.808 76.1808 25.216 74.5968 25.216C73.3168 25.216 72.1648 24.936 71.1408 24.376C70.1328 23.8 69.3408 22.992 68.7648 21.952C68.2048 20.912 67.9248 19.712 67.9248 18.352C67.9248 16.976 68.2048 15.768 68.7648 14.728C69.3248 13.688 70.1088 12.888 71.1168 12.328C72.1248 11.768 73.2848 11.488 74.5968 11.488C75.8608 11.488 76.9888 11.76 77.9808 12.304C78.9888 12.848 79.7648 13.624 80.3088 14.632C80.8688 15.624 81.1488 16.768 81.1488 18.064ZM77.6688 17.104C77.6528 16.24 77.3408 15.552 76.7328 15.04C76.1248 14.512 75.3808 14.248 74.5008 14.248C73.6688 14.248 72.9648 14.504 72.3888 15.016C71.8288 15.512 71.4848 16.208 71.3568 17.104H77.6688ZM86.9613 7.24V25H83.6013V7.24H86.9613ZM89.417 18.352C89.417 16.976 89.697 15.776 90.257 14.752C90.817 13.712 91.593 12.912 92.585 12.352C93.577 11.776 94.713 11.488 95.993 11.488C97.641 11.488 99.001 11.904 100.073 12.736C101.161 13.552 101.889 14.704 102.257 16.192H98.633C98.441 15.616 98.113 15.168 97.649 14.848C97.201 14.512 96.641 14.344 95.969 14.344C95.009 14.344 94.249 14.696 93.689 15.4C93.129 16.088 92.849 17.072 92.849 18.352C92.849 19.616 93.129 20.6 93.689 21.304C94.249 21.992 95.009 22.336 95.969 22.336C97.329 22.336 98.217 21.728 98.633 20.512H102.257C101.889 21.952 101.161 23.096 100.073 23.944C98.985 24.792 97.625 25.216 95.993 25.216C94.713 25.216 93.577 24.936 92.585 24.376C91.593 23.8 90.817 23 90.257 21.976C89.697 20.936 89.417 19.728 89.417 18.352ZM110.623 25.216C109.343 25.216 108.191 24.936 107.167 24.376C106.143 23.8 105.335 22.992 104.743 21.952C104.167 20.912 103.879 19.712 103.879 18.352C103.879 16.992 104.175 15.792 104.767 14.752C105.375 13.712 106.199 12.912 107.239 12.352C108.279 11.776 109.439 11.488 110.719 11.488C111.999 11.488 113.159 11.776 114.199 12.352C115.239 12.912 116.055 13.712 116.647 14.752C117.255 15.792 117.559 16.992 117.559 18.352C117.559 19.712 117.247 20.912 116.622 21.952C116.015 22.992 115.183 23.8 114.127 24.376C113.087 24.936 111.919 25.216 110.623 25.216ZM110.623 22.288C111.231 22.288 111.799 22.144 112.327 21.856C112.871 21.552 113.303 21.104 113.623 20.512C113.943 19.92 114.103 19.2 114.103 18.352C114.103 17.088 113.767 16.12 113.095 15.448C112.439 14.76 111.631 14.416 110.671 14.416C109.711 14.416 108.903 14.76 108.247 15.448C107.607 16.12 107.287 17.088 107.287 18.352C107.287 19.616 107.599 20.592 108.223 21.28C108.863 21.952 109.663 22.288 110.623 22.288ZM136.535 11.512C138.167 11.512 139.479 12.016 140.471 13.024C141.479 14.016 141.983 15.408 141.983 17.2V25H138.623V17.656C138.623 16.616 138.359 15.824 137.831 15.28C137.303 14.72 136.583 14.44 135.671 14.44C134.759 14.44 134.031 14.72 133.487 15.28C132.959 15.824 132.695 16.616 132.695 17.656V25H129.335V17.656C129.335 16.616 129.071 15.824 128.543 15.28C128.015 14.72 127.295 14.44 126.383 14.44C125.455 14.44 124.719 14.72 124.175 15.28C123.647 15.824 123.383 16.616 123.383 17.656V25H120.023V11.704H123.383V13.312C123.815 12.752 124.367 12.312 125.039 11.992C125.727 11.672 126.479 11.512 127.295 11.512C128.335 11.512 129.263 11.736 130.079 12.184C130.895 12.616 131.527 13.24 131.975 14.056C132.407 13.288 133.031 12.672 133.847 12.208C134.679 11.744 135.575 11.512 136.535 11.512ZM157.532 18.064C157.532 18.544 157.5 18.976 157.436 19.36H147.716C147.796 20.32 148.132 21.072 148.724 21.616C149.316 22.16 150.044 22.432 150.908 22.432C152.156 22.432 153.044 21.896 153.572 20.824H157.196C156.812 22.104 156.076 23.16 154.988 23.992C153.9 24.808 152.564 25.216 150.98 25.216C149.7 25.216 148.548 24.936 147.524 24.376C146.516 23.8 145.724 22.992 145.148 21.952C144.588 20.912 144.308 19.712 144.308 18.352C144.308 16.976 144.588 15.768 145.148 14.728C145.708 13.688 146.492 12.888 147.5 12.328C148.508 11.768 149.668 11.488 150.98 11.488C152.244 11.488 153.372 11.76 154.364 12.304C155.372 12.848 156.148 13.624 156.692 14.632C157.252 15.624 157.532 16.768 157.532 18.064ZM154.052 17.104C154.036 16.24 153.724 15.552 153.116 15.04C152.508 14.512 151.764 14.248 150.884 14.248C150.052 14.248 149.348 14.504 148.772 15.016C148.212 15.512 147.868 16.208 147.74 17.104H154.052ZM169.615 14.464V20.896C169.615 21.344 169.719 21.672 169.927 21.88C170.151 22.072 170.519 22.168 171.031 22.168H172.591V25H170.479C167.647 25 166.231 23.624 166.231 20.872V14.464H164.647V11.704H166.231V8.416H169.615V11.704H172.591V14.464H169.615ZM180.912 25.216C179.632 25.216 178.48 24.936 177.456 24.376C176.432 23.8 175.624 22.992 175.032 21.952C174.456 20.912 174.168 19.712 174.168 18.352C174.168 16.992 174.464 15.792 175.056 14.752C175.664 13.712 176.488 12.912 177.528 12.352C178.568 11.776 179.728 11.488 181.008 11.488C182.288 11.488 183.448 11.776 184.488 12.352C185.528 12.912 186.344 13.712 186.936 14.752C187.544 15.792 187.848 16.992 187.848 18.352C187.848 19.712 187.536 20.912 186.912 21.952C186.304 22.992 185.472 23.8 184.416 24.376C183.376 24.936 182.208 25.216 180.912 25.216ZM180.912 22.288C181.52 22.288 182.088 22.144 182.616 21.856C183.16 21.552 183.592 21.104 183.912 20.512C184.232 19.92 184.392 19.2 184.392 18.352C184.392 17.088 184.056 16.12 183.384 15.448C182.728 14.76 181.92 14.416 180.96 14.416C180 14.416 179.192 14.76 178.536 15.448C177.896 16.12 177.576 17.088 177.576 18.352C177.576 19.616 177.888 20.592 178.512 21.28C179.152 21.952 179.952 22.288 180.912 22.288ZM199.391 13.648C199.823 13.008 200.415 12.488 201.167 12.088C201.935 11.688 202.807 11.488 203.783 11.488C204.919 11.488 205.943 11.768 206.855 12.328C207.783 12.888 208.511 13.688 209.039 14.728C209.583 15.752 209.855 16.944 209.855 18.304C209.855 19.664 209.583 20.872 209.039 21.928C208.511 22.968 207.783 23.776 206.855 24.352C205.943 24.928 204.919 25.216 203.783 25.216C202.791 25.216 201.919 25.024 201.167 24.64C200.431 24.24 199.839 23.728 199.391 23.104V25H196.031V7.24H199.391V13.648ZM206.423 18.304C206.423 17.504 206.255 16.816 205.919 16.24C205.599 15.648 205.167 15.2 204.623 14.896C204.095 14.592 203.519 14.44 202.895 14.44C202.287 14.44 201.711 14.6 201.167 14.92C200.639 15.224 200.207 15.672 199.871 16.264C199.551 16.856 199.391 17.552 199.391 18.352C199.391 19.152 199.551 19.848 199.871 20.44C200.207 21.032 200.639 21.488 201.167 21.808C201.711 22.112 202.287 22.264 202.895 22.264C203.519 22.264 204.095 22.104 204.623 21.784C205.167 21.464 205.599 21.008 205.919 20.416C206.255 19.824 206.423 19.12 206.423 18.304ZM224.657 18.064C224.657 18.544 224.625 18.976 224.561 19.36H214.841C214.921 20.32 215.257 21.072 215.849 21.616C216.441 22.16 217.169 22.432 218.033 22.432C219.281 22.432 220.169 21.896 220.697 20.824H224.321C223.937 22.104 223.201 23.16 222.113 23.992C221.025 24.808 219.689 25.216 218.105 25.216C216.825 25.216 215.673 24.936 214.649 24.376C213.641 23.8 212.849 22.992 212.273 21.952C211.713 20.912 211.433 19.712 211.433 18.352C211.433 16.976 211.713 15.768 212.273 14.728C212.833 13.688 213.617 12.888 214.625 12.328C215.633 11.768 216.793 11.488 218.105 11.488C219.369 11.488 220.497 11.76 221.489 12.304C222.497 12.848 223.273 13.624 223.817 14.632C224.377 15.624 224.657 16.768 224.657 18.064ZM221.177 17.104C221.161 16.24 220.849 15.552 220.241 15.04C219.633 14.512 218.889 14.248 218.009 14.248C217.177 14.248 216.473 14.504 215.897 15.016C215.337 15.512 214.993 16.208 214.865 17.104H221.177ZM228.813 10.12C228.221 10.12 227.725 9.936 227.325 9.568C226.941 9.184 226.749 8.712 226.749 8.152C226.749 7.592 226.941 7.128 227.325 6.76C227.725 6.376 228.221 6.184 228.813 6.184C229.405 6.184 229.893 6.376 230.277 6.76C230.677 7.128 230.877 7.592 230.877 8.152C230.877 8.712 230.677 9.184 230.277 9.568C229.893 9.936 229.405 10.12 228.813 10.12ZM230.469 11.704V25H227.109V11.704H230.469ZM241.157 11.512C242.741 11.512 244.021 12.016 244.997 13.024C245.973 14.016 246.461 15.408 246.461 17.2V25H243.101V17.656C243.101 16.6 242.837 15.792 242.309 15.232C241.781 14.656 241.061 14.368 240.149 14.368C239.221 14.368 238.485 14.656 237.941 15.232C237.413 15.792 237.149 16.6 237.149 17.656V25H233.789V11.704H237.149V13.36C237.597 12.784 238.165 12.336 238.853 12.016C239.557 11.68 240.325 11.512 241.157 11.512ZM254.864 11.488C255.856 11.488 256.728 11.688 257.48 12.088C258.232 12.472 258.824 12.976 259.256 13.6V11.704H262.64V25.096C262.64 26.328 262.392 27.424 261.896 28.384C261.4 29.36 260.656 30.128 259.664 30.688C258.672 31.264 257.472 31.552 256.064 31.552C254.176 31.552 252.624 31.112 251.408 30.232C250.208 29.352 249.528 28.152 249.368 26.632H252.704C252.88 27.24 253.256 27.72 253.832 28.072C254.424 28.44 255.136 28.624 255.968 28.624C256.944 28.624 257.736 28.328 258.344 27.736C258.952 27.16 259.256 26.28 259.256 25.096V23.032C258.824 23.656 258.224 24.176 257.456 24.592C256.704 25.008 255.84 25.216 254.864 25.216C253.744 25.216 252.72 24.928 251.792 24.352C250.864 23.776 250.128 22.968 249.584 21.928C249.056 20.872 248.792 19.664 248.792 18.304C248.792 16.96 249.056 15.768 249.584 14.728C250.128 13.688 250.856 12.888 251.768 12.328C252.696 11.768 253.728 11.488 254.864 11.488ZM259.256 18.352C259.256 17.536 259.096 16.84 258.776 16.264C258.456 15.672 258.024 15.224 257.48 14.92C256.936 14.6 256.352 14.44 255.728 14.44C255.104 14.44 254.528 14.592 254 14.896C253.472 15.2 253.04 15.648 252.704 16.24C252.384 16.816 252.224 17.504 252.224 18.304C252.224 19.104 252.384 19.808 252.704 20.416C253.04 21.008 253.472 21.464 254 21.784C254.544 22.104 255.12 22.264 255.728 22.264C256.352 22.264 256.936 22.112 257.48 21.808C258.024 21.488 258.456 21.04 258.776 20.464C259.096 19.872 259.256 19.168 259.256 18.352ZM278.138 13.432C278.138 14.328 277.922 15.168 277.49 15.952C277.074 16.736 276.41 17.368 275.498 17.848C274.602 18.328 273.466 18.568 272.09 18.568H269.282V25H265.922V8.248H272.09C273.386 8.248 274.49 8.472 275.402 8.92C276.314 9.368 276.994 9.984 277.442 10.768C277.906 11.552 278.138 12.44 278.138 13.432ZM271.946 15.856C272.874 15.856 273.562 15.648 274.01 15.232C274.458 14.8 274.682 14.2 274.682 13.432C274.682 11.8 273.77 10.984 271.946 10.984H269.282V15.856H271.946ZM298.787 8.248V25H295.427V14.104L290.939 25H288.395L283.883 14.104V25H280.523V8.248H284.339L289.667 20.704L294.995 8.248H298.787Z" fill="#303030"/>
</svg>
