<svg width="225" height="225" viewBox="0 0 225 225" fill="none" xmlns="http://www.w3.org/2000/svg">
<path d="M99.5896 52.618C103.483 39.8796 121.517 39.8796 125.41 52.618L132.049 74.3357C132.648 76.2976 133.687 78.097 135.086 79.5973L150.575 96.2049C159.66 105.946 150.644 121.564 137.665 118.566L115.538 113.456C113.539 112.995 111.461 112.995 109.462 113.456L87.3351 118.566C74.3565 121.564 65.3397 105.946 74.4247 96.2049L89.9137 79.5972C91.3129 78.097 92.3518 76.2976 92.9515 74.3357L99.5896 52.618Z" fill="url(#paint0_angular)"/>
<path opacity="0.8" d="M140.754 72.8173L112.5 121.755L84.2459 72.8173H140.754Z" stroke="white" stroke-width="1.125"/>
<path d="M18.9713 187.64C17.0789 187.64 15.4569 187.37 14.1052 186.829C12.7873 186.288 11.6214 185.427 10.6076 184.244L10.0501 186.88H2.64952L10.6076 149.421H18.2616L14.9669 164.729C16.251 163.783 17.721 163.056 19.3768 162.549C21.0664 162.042 22.7729 161.789 24.4963 161.789C26.5577 161.789 28.3656 162.194 29.92 163.005C31.5083 163.816 32.7417 164.982 33.6203 166.503C34.4989 167.99 34.9382 169.713 34.9382 171.673C34.9382 172.755 34.8199 173.785 34.5834 174.765C34.0427 177.333 33.0289 179.597 31.5421 181.557C30.0552 183.484 28.2135 184.987 26.017 186.069C23.8543 187.116 21.5057 187.64 18.9713 187.64ZM18.3123 181.71C20.3737 181.71 22.1816 181.084 23.736 179.834C25.3243 178.55 26.338 176.86 26.7773 174.765C26.9463 173.92 27.0308 173.211 27.0308 172.636C27.0308 171.082 26.5577 169.882 25.6115 169.037C24.6991 168.193 23.2629 167.77 21.303 167.77C19.7147 167.77 18.194 168.209 16.741 169.088C15.2879 169.933 14.1558 171.048 13.3448 172.433L12.3817 177.046C12.6183 178.465 13.2603 179.597 14.3079 180.442C15.3893 181.287 16.7241 181.71 18.3123 181.71ZM50.6537 187.64C46.9365 187.64 43.9121 186.761 41.5804 185.004C39.2487 183.247 38.0829 180.78 38.0829 177.604C38.0829 176.759 38.1843 175.83 38.387 174.816C39.2656 170.727 41.0735 167.534 43.8107 165.236C46.5817 162.938 50.2989 161.789 54.9622 161.789C57.4291 161.789 59.4904 162.245 61.1462 163.157C62.8359 164.036 64.0862 165.236 64.8972 166.756C65.742 168.243 66.1644 169.899 66.1644 171.724C66.1644 172.602 66.063 173.481 65.8603 174.36L65.2013 177.452H45.1286C44.9934 180.561 47.5617 182.115 52.8333 182.115C54.3877 182.115 56.0267 181.98 57.7501 181.71C59.4735 181.439 60.9942 181.067 62.3121 180.594L61.1462 185.967C59.8621 186.474 58.257 186.88 56.3308 187.184C54.4046 187.488 52.5123 187.64 50.6537 187.64ZM59.0173 172.484C59.0849 172.011 59.1187 171.656 59.1187 171.42C59.1187 168.716 57.2939 167.365 53.6443 167.365C51.7181 167.365 50.0961 167.821 48.7782 168.733C47.4941 169.646 46.6324 170.896 46.1931 172.484H59.0173ZM78.1024 158.798C77.0548 158.798 76.21 158.511 75.568 157.937C74.9597 157.328 74.6556 156.551 74.6556 155.605C74.6556 154.219 75.1793 153.037 76.2269 152.057C77.3083 151.077 78.5248 150.587 79.8765 150.587C80.8903 150.587 81.7013 150.891 82.3095 151.499C82.9516 152.074 83.2726 152.834 83.2726 153.78C83.2726 155.166 82.7488 156.348 81.7013 157.328C80.6537 158.308 79.4541 158.798 78.1024 158.798ZM73.4897 162.549H81.1944L76.0242 186.88H68.3195L73.4897 162.549ZM87.304 162.549H94.7045L94.0456 165.54C95.431 164.29 96.9517 163.36 98.6075 162.752C100.297 162.11 101.987 161.789 103.676 161.789C106.312 161.789 108.306 162.499 109.658 163.918C111.009 165.303 111.685 167.094 111.685 169.291C111.685 169.933 111.601 170.71 111.432 171.622L108.238 186.88H100.584L103.626 172.484C103.761 171.91 103.828 171.318 103.828 170.71C103.828 169.696 103.541 168.953 102.967 168.48C102.392 168.007 101.497 167.77 100.28 167.77C98.9962 167.77 97.7289 168.091 96.4786 168.733C95.2283 169.341 94.0794 170.254 93.0318 171.47L89.7877 186.88H82.1337L87.304 162.549ZM124.42 198.538C122.798 198.538 121.193 198.386 119.605 198.082C118.016 197.778 116.732 197.372 115.752 196.865L116.918 191.239C119.25 192.388 122.139 192.962 125.586 192.962C128.289 192.962 130.351 192.405 131.77 191.29C133.223 190.175 134.186 188.502 134.659 186.271L134.963 184.751C133.645 185.731 132.26 186.457 130.807 186.93C129.387 187.404 127.664 187.64 125.636 187.64C123.677 187.64 121.886 187.218 120.263 186.373C118.675 185.528 117.408 184.345 116.462 182.825C115.549 181.27 115.093 179.496 115.093 177.502C115.093 176.59 115.195 175.661 115.397 174.714C116.208 170.727 117.982 167.584 120.72 165.286C123.457 162.955 126.887 161.789 131.009 161.789C132.902 161.789 134.507 162.059 135.825 162.6C137.177 163.141 138.359 164.002 139.373 165.185L139.981 162.549H147.382L142.516 185.308C141.603 189.634 139.728 192.912 136.889 195.142C134.085 197.406 129.928 198.538 124.42 198.538ZM128.728 181.71C130.317 181.71 131.837 181.287 133.29 180.442C134.744 179.564 135.859 178.415 136.636 176.995L137.599 172.433C137.362 171.014 136.72 169.882 135.673 169.037C134.625 168.193 133.307 167.77 131.719 167.77C129.658 167.77 127.833 168.395 126.245 169.646C124.69 170.896 123.693 172.569 123.254 174.664C123.085 175.509 123.001 176.218 123.001 176.793C123.001 178.347 123.474 179.564 124.42 180.442C125.366 181.287 126.802 181.71 128.728 181.71Z" fill="#EC5F5F"/>
<path d="M150.577 151.448H165.48C169.501 151.448 172.711 152.513 175.111 154.642C177.51 156.737 178.71 159.66 178.71 163.411C178.71 167.263 177.51 170.22 175.111 172.281C172.745 174.343 169.535 175.373 165.48 175.373H158.282V186.88H150.577V151.448ZM164.365 168.936C168.724 168.936 170.903 167.094 170.903 163.411C170.903 161.35 170.312 159.913 169.129 159.102C167.98 158.291 166.392 157.886 164.365 157.886H158.282V168.936H164.365ZM182.765 151.448H190.368L201.266 175.171L212.215 151.448H219.767V186.88H212.417V166.756L203.04 186.88H199.492L190.165 166.756V186.88H182.765V151.448Z" fill="black"/>
<defs>
<radialGradient id="paint0_angular" cx="0" cy="0" r="1" gradientUnits="userSpaceOnUse" gradientTransform="translate(112.5 89.1298) rotate(90) scale(78.75)">
<stop offset="0.328125" stop-color="#EC5F5F"/>
<stop offset="0.666667" stop-color="#EC5F5F" stop-opacity="0"/>
</radialGradient>
</defs>
</svg>
